<?xml version="1.0" encoding="UTF-8" standalone="no"?>
<svg
   width="1920"
   height="63"
   viewBox="0 0 1920 63"
   fill="none"
   version="1.1"
   id="svg20"
   sodipodi:docname="wave.svg"
   inkscape:export-filename="wave.svg"
   inkscape:export-xdpi="96"
   inkscape:export-ydpi="96"
   inkscape:version="1.4.2 (f4327f4, 2025-05-13)"
   xmlns:inkscape="http://www.inkscape.org/namespaces/inkscape"
   xmlns:sodipodi="http://sodipodi.sourceforge.net/DTD/sodipodi-0.dtd"
   xmlns="http://www.w3.org/2000/svg"
   xmlns:svg="http://www.w3.org/2000/svg">
  <sodipodi:namedview
     id="namedview20"
     pagecolor="#ffffff"
     bordercolor="#000000"
     borderopacity="0.25"
     inkscape:showpageshadow="2"
     inkscape:pageopacity="0.0"
     inkscape:pagecheckerboard="0"
     inkscape:deskcolor="#d1d1d1"
     showgrid="false"
     inkscape:zoom="0.7296875"
     inkscape:cx="813.36188"
     inkscape:cy="133.61884"
     inkscape:window-width="1920"
     inkscape:window-height="1017"
     inkscape:window-x="-8"
     inkscape:window-y="-8"
     inkscape:window-maximized="1"
     inkscape:current-layer="g19" />
  <g
     clip-path="url(#clip0_129_2233)"
     id="g20">
    <g
       style="mix-blend-mode:color-dodge"
       id="g19">
      <path
         d="M0.84375 256.582C62.8906 211.964 131.357 183.966 206.959 211.146C274.274 235.359 326.603 291.611 378.342 338.479C436.655 391.304 510.313 485.091 599.829 466.656C650.213 456.275 694.536 417.717 732.183 384.887C815.279 312.399 888.119 228.43 962.826 147.658C1032.75 72.0252 1110.24 17.6146 1175.46 122.882C1219.38 193.733 1253.47 305.802 1353.06 309.739C1441.45 313.242 1507.87 242.672 1587.54 216.643C1709.74 176.73 1833.71 294.04 1919.05 362.948"
         stroke="#666666"
         stroke-miterlimit="10"
         id="path1"
         style="stroke:#898989;stroke-opacity:0.29749104;stroke-width:1.0015748;stroke-dasharray:none" />
      <path
         d="M0.84375 231.984C64.5275 182.381 135.475 149.448 215.911 178.034C283.789 202.146 340.004 257.119 390.184 306.543C442.359 357.962 512.385 458.96 597.808 441.726C645.609 432.087 687.656 393.452 722.899 362.105C803.489 290.384 875.459 208.614 948.273 129.274C1014.95 56.6328 1093.26 -9.59073 1159.4 95.1907C1202.68 163.741 1235.54 273.15 1333.27 274.506C1420.89 275.707 1493.96 212.117 1575.78 190.333C1703.12 156.403 1827.57 267.627 1919.03 338.684"
         stroke="#666666"
         stroke-miterlimit="10"
         id="path2"
         style="stroke:#898989;stroke-opacity:0.29749104;stroke-width:1.0015748;stroke-dasharray:none" />
      <path
         d="M0.84375 204.574C71.1004 149.32 146.063 119.609 231.947 157.962C302.971 189.693 365.171 249.729 420.133 302.887C469.443 350.599 530.544 431.115 608.294 406.032C655.737 390.716 696.991 349.806 732.388 316.924C803.335 251.033 869.27 179.67 936.201 109.765C999.987 43.1067 1077.38 -21.736 1145.95 71.207C1194.72 137.328 1225.77 243.081 1323.14 247.914C1409.87 252.209 1493.73 195.012 1577.34 179.67C1703.78 156.454 1821.38 243.593 1919.05 310.737"
         stroke="#666666"
         stroke-miterlimit="10"
         id="path3"
         style="stroke:#898989;stroke-opacity:0.29749104;stroke-width:1.0015748;stroke-dasharray:none" />
      <path
         d="M0.84375 174.122C76.3946 116.49 153.378 91.1509 241.64 136.664C309.262 171.514 371.667 227.638 427.294 278.852C479.137 326.59 542.795 408.845 621.133 372.435C662.029 353.437 695.687 317.257 727.81 286.651C795.381 222.217 859.295 153.897 925.281 87.8781C993.542 19.5835 1070.88 -33.3697 1141.7 57.4255C1190.45 119.942 1225.57 218.356 1318 222.447C1403.04 226.232 1487.51 185.5 1570.51 171.949C1698.62 151.033 1812.35 216.336 1919.05 279.261"
         stroke="#666666"
         stroke-miterlimit="10"
         id="path4"
         style="stroke:#898989;stroke-opacity:0.29749104;stroke-width:1.0015748;stroke-dasharray:none" />
      <path
         d="M0.84375 141.189C87.9805 78.3408 171.102 64.1244 263.891 122.601C330.567 164.61 392.204 221.527 451.873 272.844C501.694 315.697 557.731 382.969 627.451 344.002C664.791 323.138 695.866 285.935 725.61 255.84C788.936 191.739 850.599 126.078 915.766 63.8176C983.287 -0.692762 1060.58 -47.2538 1132.44 34.26C1186.1 95.114 1223.26 192.174 1315.46 200.969C1396.72 208.717 1485.26 176.96 1565.19 164.585C1692.91 144.82 1805.29 189.949 1919 245.05"
         stroke="#666666"
         stroke-miterlimit="10"
         id="path5"
         style="stroke:#898989;stroke-opacity:0.29749104;stroke-width:1.0015748;stroke-dasharray:none" />
      <path
         d="M0.84375 106.39C95.244 42.9022 182.048 36.1009 276.653 102.529C348.035 152.644 412.179 215.978 480.057 270.9C526.733 308.64 578.371 360.391 636.709 317.027C675.277 288.364 706.761 245.178 738.782 209.995C792.926 150.547 848.425 91.8922 907.991 37.8395C980.985 -28.4095 1060.14 -59.7059 1133.65 20.1459C1187.46 78.5964 1228.69 169.826 1317.1 179.721C1400.79 189.08 1491.27 167.116 1574.16 155.738C1696.06 139.016 1804.55 166.247 1919.03 208.614"
         stroke="#666666"
         stroke-miterlimit="10"
         id="path6"
         style="stroke:#898989;stroke-opacity:0.29749104;stroke-width:1.0015748;stroke-dasharray:none" />
      <path
         d="M0.84375 70.261C108.467 2.98918 199.951 10.1485 298.751 89.0031C373.713 148.834 437.601 218.458 515.735 274.915C569.342 313.626 607.987 335.487 656.914 281.537C740.061 189.847 807.402 85.3467 904.82 6.2876C976.33 -51.7283 1055 -73.3596 1126.26 -5.83208C1186.46 51.2122 1226.97 138.786 1313.88 159.343C1394.11 178.29 1494.8 159.599 1575.47 148.604C1694.52 132.368 1801.97 141.905 1919.05 170.747"
         stroke="#666666"
         stroke-miterlimit="10"
         id="path7"
         style="stroke:#898989;stroke-opacity:0.29749104;stroke-width:1.0015748;stroke-dasharray:none" />
      <path
         d="M0.84375 33.4161C121.357 -36.8728 219.491 -14.0398 321.104 75.9372C393.892 140.396 454.43 215.032 537.04 267.985C597.68 306.876 629.599 313.754 671.083 251.826C736.813 153.718 802.977 53.4366 898.733 -18.9235C976.151 -77.4507 1054.59 -90.5931 1130.25 -23.1168C1193.24 33.0837 1238.07 123.495 1327.15 143.388C1406.16 161.031 1498.36 152.644 1578 141.803C1693.63 126.052 1802.25 118.944 1919.05 131.959"
         stroke="#666666"
         stroke-miterlimit="10"
         id="path8"
         style="stroke:#898989;stroke-opacity:0.29749104;stroke-width:1.0015748;stroke-dasharray:none" />
      <path
         d="M0.84375 -3.55645C132.201 -76.0443 234.965 -40.3245 339.084 58.8573C412.767 129.044 473.51 214.777 564.227 264.534C631.568 301.481 655.2 282.279 687.323 218.944C738.424 118.228 803.054 16.4384 897.71 -49.1714C977.839 -104.733 1058.89 -106.446 1134.16 -42.6002C1199.81 13.1145 1247.64 101.174 1335.59 125.873C1524.24 178.852 1729.54 99.6653 1919.05 93.0941"
         stroke="#666666"
         stroke-miterlimit="10"
         id="path9"
         style="stroke:#898989;stroke-opacity:0.29749104;stroke-width:1.0015748;stroke-dasharray:none" />
      <path
         d="M0.84375 -40.0944C66.1899 -74.8937 127.623 -95.5534 200.744 -70.2146C261.231 -49.248 310.771 -5.24394 355.145 39.5784C428.343 113.575 490.927 213.14 588.447 257.119C661.594 290.103 678.909 245.664 703.59 183.659C743.82 82.5086 804.563 -21.1223 899.475 -80.3399C1106.33 -209.437 1180.99 51.7748 1345.57 108.41C1537.77 174.557 1731.1 91.0997 1919.05 54.7152"
         stroke="#666666"
         stroke-miterlimit="10"
         id="path10"
         style="stroke:#898989;stroke-opacity:0.29749104;stroke-width:1.0015748;stroke-dasharray:none" />
      <path
         d="M 0.84375,-75.6096 C 69.0032,-111.662 131.817,-131.759 206.268,-104.375 c 62.457,22.9613 112.943,69.8802 158.187,117.4128 71.152,74.738 144.733,204.1172 250.873,233.8792 74.297,20.838 86.011,-48.658 104.835,-104.603 32.941,-97.9286 89.72,-205.9062 184.708,-257.709 197.189,-107.543 296.499,134.2625 445.379,202.6083 195.32,89.6697 384.45,-2.2757 568.78,-69.7265"
         stroke="#666666"
         stroke-miterlimit="10"
         id="path11"
         style="stroke:#898989;stroke-opacity:0.29749104;stroke-width:1.0015748;stroke-dasharray:none"
         sodipodi:nodetypes="cccccccc" />
      <path
         d="M0.84375 -109.489C69.6682 -146.921 131.664 -167.249 207.419 -140.734C270.234 -118.744 321.564 -69.6777 366.219 -21.8638C438.676 55.7378 516.349 203.143 629.011 225.132C705.585 240.09 716.326 163.613 733.053 106.185C761.775 7.66828 813.489 -101.383 912.749 -147.203C1110.22 -238.356 1216.72 -6.21567 1362.37 68.8547C1438.2 107.924 1536.39 127.944 1620.87 114.342C1727.95 97.1084 1825.88 33.6719 1919.05 -17.7984"
         stroke="#666666"
         stroke-miterlimit="10"
         id="path12"
         style="stroke:#898989;stroke-opacity:0.29749104;stroke-width:1.0015748;stroke-dasharray:none" />
      <path
         d="M0.84375 -141.194C74.144 -183.562 144.989 -207.98 226.141 -171.365C287.037 -143.879 335.349 -93.3544 379.007 -44.3132C444.43 29.1719 526.887 183.992 636.939 195.6C719.779 204.345 730.24 113.907 747.989 52.8486C775.432 -41.5262 824.845 -142.702 924.309 -179.113C1120.3 -250.884 1233.62 -35.6709 1375.03 48.4253C1446.49 90.9208 1539.89 120.018 1623.47 109.612C1735.44 95.651 1832.35 14.6487 1919 -50.6799"
         stroke="#666666"
         stroke-miterlimit="10"
         id="path13"
         style="stroke:#898989;stroke-opacity:0.29749104;stroke-width:1.0015748;stroke-dasharray:none" />
      <path
         d="M0.84375 -170.112C70.0518 -214.193 138.186 -244.876 219.952 -211.866C285.477 -185.403 337.651 -129.228 382.665 -76.7346C447.013 -1.68988 527.935 152.388 642.259 155.099C723.769 157.016 738.859 65.2751 758.092 4.01199C787.836 -90.6441 834.87 -182.462 939.194 -209.233C1138.97 -260.524 1249.89 -63.7457 1392.83 30.6548C1462.81 76.8834 1556.13 115.007 1641.38 102.708C1752.86 86.5996 1842.43 -6.03661 1919.03 -80.3399"
         stroke="#666666"
         stroke-miterlimit="10"
         id="path14"
         style="stroke:#898989;stroke-opacity:0.29749104;stroke-width:1.0015748;stroke-dasharray:none" />
      <path
         d="M0.84375 -195.656C64.374 -241.705 130.36 -280.289 211.153 -253.237C274.121 -232.168 323.713 -180.57 366.092 -131.631C435.504 -51.4982 505.326 91.0485 624.816 100.151C715.661 107.055 739.268 18.7908 765.406 -51.0379C801.059 -146.308 850.753 -226.978 959.936 -241.731C1153.49 -267.888 1265.03 -101.511 1399.51 3.2193C1466.92 55.7123 1558.2 105.981 1646.42 97.3896C1763.42 85.9859 1849.54 -22.7843 1919.03 -106.165"
         stroke="#666666"
         stroke-miterlimit="10"
         id="path15"
         style="stroke:#898989;stroke-opacity:0.29749104;stroke-width:1.0015748;stroke-dasharray:none" />
      <path
         d="M 0.84375,-215.804 C 64.0671,-259.91 129.26,-296.218 208.442,-270.445 c 61.664,20.072 110.744,69.394 152.611,116.85 67.443,76.4001 138.826,223.0634 254.888,227.0777 89.746,3.0939 120.462,-76.37436 152.637,-146.2286 41.254,-89.5171 97.085,-171.4651 202.969,-185.7581 186.783,-25.211 303.453,130.222 436.013,229.6343 65.04,48.76 156.78,98.3636 240.31,96.7272 116.78,-2.3012 203.28,-113.3469 271.16,-194.4005"
         stroke="#666666"
         stroke-miterlimit="10"
         id="path16"
         style="stroke:#898989;stroke-opacity:0.29749104;stroke-width:1.0015748;stroke-dasharray:none"
         sodipodi:nodetypes="ccccccccc" />
      <path
         d="M0.84375 -229.586C63.0696 -272.158 127.316 -307.469 204.939 -283.996C264.914 -265.868 313.278 -219.69 354.48 -174.485C420.849 -101.639 491.924 43.4905 604.228 44.1808C692.285 44.7178 729.779 -25.3411 768.22 -93.5845C815.177 -176.939 876.815 -256.919 978.939 -270.931C1158.97 -295.605 1280.58 -156.203 1413.22 -63.4132C1477.62 -18.3608 1568.36 31.9077 1648.05 39.0159C1764.24 49.3713 1852.15 -62.774 1919 -140.913"
         stroke="#666666"
         stroke-miterlimit="10"
         id="path17"
         style="stroke:#898989;stroke-opacity:0.29749104;stroke-width:1.0015748;stroke-dasharray:none" />
      <path
         d="m 0.84375,-238.126 c 59.69385,-40.782 123.50525,-76.042 198.05925,-57.121 63.555,16.109 114.042,64.153 157.316,110.663 65.781,70.698 131.741,202.0196 241.64,197.1359 83.147,-3.68192 125.526,-66.786 168.954,-128.8929 53.326,-76.298 117.7,-147.839 215.348,-161.698 177.319,-25.185 301.539,95.321 439.499,181.2838 63.73,39.7341 144.6,86.85762 218.03,105.85533 119.03,30.78497 209.67,-80.72113 279.34,-159.47313"
         stroke="#666666"
         stroke-miterlimit="10"
         id="path18"
         sodipodi:nodetypes="ccccccccc"
         style="stroke:#898989;stroke-opacity:0.29749104;stroke-width:1.0015748;stroke-dasharray:none" />
      <path
         d="M0.84375 -242.524C58.9008 -282.692 121.357 -318.719 194.683 -303.812C255.732 -291.386 305.349 -248.635 347.882 -205.704C414.583 -138.407 476.681 -17.5426 583.153 -22.2729C663.922 -25.8525 712.49 -78.9847 761.902 -136.234C821.11 -204.809 889.449 -269.959 983.338 -283.613C1153.16 -308.312 1283.29 -211.969 1422.86 -135.313C1492.12 -97.2665 1564.96 -50.7566 1637.67 -19.9717C1754.73 29.6065 1846.75 -77.6807 1919 -155.947"
         stroke="#666666"
         stroke-miterlimit="10"
         id="path19"
         style="stroke:#898989;stroke-opacity:0.29749104;stroke-width:1.0015748;stroke-dasharray:none" />
    </g>
  </g>
  <defs
     id="defs20">
    <clipPath
       id="clip0_129_2233">
      <rect
         width="1920"
         height="1282"
         fill="white"
         transform="translate(0 -610)"
         id="rect20" />
    </clipPath>
  </defs>
</svg>
